<?xml version="1.0" encoding="UTF-8" standalone="no"?>
<!-- Created with Inkscape (http://www.inkscape.org/) -->

<svg
   width="39.6875mm"
   height="10.583333mm"
   viewBox="0 0 39.687499 10.583333"
   version="1.1"
   id="svg687"
   inkscape:version="1.2.1 (9c6d41e410, 2022-07-14)"
   sodipodi:docname="logo-union.svg"
   xmlns:inkscape="http://www.inkscape.org/namespaces/inkscape"
   xmlns:sodipodi="http://sodipodi.sourceforge.net/DTD/sodipodi-0.dtd"
   xmlns="http://www.w3.org/2000/svg"
   xmlns:svg="http://www.w3.org/2000/svg">
  <sodipodi:namedview
     id="namedview689"
     pagecolor="#ffffff"
     bordercolor="#000000"
     borderopacity="0.25"
     inkscape:showpageshadow="2"
     inkscape:pageopacity="0.0"
     inkscape:pagecheckerboard="0"
     inkscape:deskcolor="#d1d1d1"
     inkscape:document-units="mm"
     showgrid="false"
     inkscape:zoom="3.7726426"
     inkscape:cx="155.99145"
     inkscape:cy="94.761163"
     inkscape:window-width="1920"
     inkscape:window-height="991"
     inkscape:window-x="-9"
     inkscape:window-y="-9"
     inkscape:window-maximized="1"
     inkscape:current-layer="layer1"
     showguides="false" />
  <defs
     id="defs684">
    <linearGradient
       id="linearGradient6096"
       inkscape:swatch="solid">
      <stop
         style="stop-color:#f5f093;stop-opacity:1;"
         offset="0"
         id="stop6094" />
    </linearGradient>
    <rect
       x="220.59467"
       y="227.57552"
       width="383.94641"
       height="103.31649"
       id="rect693" />
    <rect
       x="105.92669"
       y="459.38153"
       width="42.80975"
       height="39.516689"
       id="rect42113" />
    <rect
       x="46.102806"
       y="488.47021"
       width="67.507683"
       height="39.516689"
       id="rect42119" />
    <rect
       x="92.754456"
       y="561.46631"
       width="60.372723"
       height="38.96785"
       id="rect42125" />
  </defs>
  <g
     inkscape:label="Layer 1"
     inkscape:groupmode="layer"
     id="layer1"
     transform="translate(-2.524755,-3.9274201)">
    <path
       id="text691"
       style="font-size:42.6667px;font-family:'Architects Daughter';-inkscape-font-specification:'Architects Daughter, Normal';white-space:pre;shape-inside:url(#rect693);fill:#56bfb5;stroke:#fbfff9;stroke-width:0"
       d="M 441.55354 218.5634 C 440.44243 218.5634 439.42988 218.71909 438.51322 219.02465 C 437.59655 219.30243 436.8027 219.84141 436.13603 220.64697 C 435.46936 221.42475 434.92857 222.49339 434.5119 223.8545 C 434.09523 225.21561 433.81344 226.95496 433.67455 229.06607 C 433.53566 231.17718 433.53566 233.7177 433.67455 236.68992 C 433.81344 239.66214 434.12398 243.13555 434.5962 247.10777 L 426.67787 249.93888 C 426.67787 250.27221 426.73535 250.63154 426.84646 251.02043 C 426.98535 251.40932 427.15218 251.77394 427.34663 252.10728 C 427.54107 252.41283 427.74821 252.67501 427.97043 252.89723 C 428.22043 253.09167 428.4563 253.18882 428.67853 253.18882 L 435.46727 250.56448 C 435.77283 252.37004 436.0087 254.16263 436.17537 255.94041 C 436.36981 257.69041 436.4676 259.483 436.4676 261.31633 L 440.71619 261.48069 L 439.76082 249.93888 L 457.63747 247.77048 C 457.58192 247.40937 457.53599 247.03541 457.50822 246.64652 L 457.50822 245.56497 C 457.50822 245.23164 457.48509 244.96946 457.42954 244.77502 C 457.40176 244.5528 457.34428 244.44101 457.26094 244.44101 C 455.64983 244.46879 454.06775 244.58058 452.51219 244.77502 C 450.95664 244.96946 449.41486 245.1731 447.88708 245.39532 L 443.3856 245.98381 C 441.91338 246.15048 440.42908 246.23299 438.92908 246.23299 C 438.23464 244.01077 437.81475 241.8003 437.67586 239.60586 C 437.53697 237.41142 437.46793 235.16235 437.46793 232.85679 C 437.46793 232.02346 437.48511 230.99342 437.51289 229.7712 C 437.54066 228.5212 437.67875 227.3168 437.92875 226.15014 C 438.20653 224.98347 438.64954 223.99734 439.26065 223.19179 C 439.87176 222.35845 440.75778 221.94058 441.92445 221.94058 C 443.06334 221.94058 444.20241 222.20276 445.3413 222.73054 C 446.48019 223.23054 447.5674 223.87198 448.59518 224.64976 C 449.62295 225.42753 450.56646 226.28724 451.42757 227.23168 C 452.28868 228.14835 453.02505 229.00806 453.63616 229.81361 C 453.66394 229.75806 453.69268 229.64627 453.72045 229.47961 L 453.80475 228.98125 C 453.83253 228.7868 453.84409 228.60714 453.84409 228.44047 C 453.87187 228.27381 453.88343 228.14739 453.88343 228.06405 C 453.88343 226.98072 453.42886 225.88281 452.51219 224.77169 C 451.6233 223.63281 450.52453 222.60807 449.21898 221.6914 C 447.9412 220.77474 446.59499 220.02151 445.17832 219.43818 C 443.78944 218.85485 442.58132 218.5634 441.55354 218.5634 z M 236.63795 225.43971 C 235.83239 225.43971 235.23411 225.55149 234.84522 225.77372 C 234.48411 225.96816 234.20232 226.25961 234.00787 226.6485 C 233.8412 227.03739 233.7203 227.5085 233.63696 228.06405 C 233.55363 228.59183 233.39836 229.17473 233.17614 229.81361 C 232.89836 230.59139 232.46691 231.77182 231.88358 233.35515 L 229.88292 238.68867 C 229.1607 240.66089 228.38403 242.74493 227.5507 244.93937 C 226.74514 247.13382 225.96847 249.2325 225.21847 251.23249 C 224.49625 253.20472 223.82892 254.98268 223.21781 256.56601 C 222.63448 258.14934 222.20303 259.31513 221.92525 260.06513 C 221.8697 260.20402 221.96748 260.36905 222.21748 260.56349 C 222.49526 260.73016 222.81736 260.88585 223.17847 261.02474 C 223.53958 261.16363 223.88481 261.24614 224.21814 261.27392 C 224.57925 261.3017 224.81513 261.24315 224.92624 261.10427 C 225.45402 260.4376 225.92577 259.6218 226.34243 258.64958 C 226.7591 257.64958 227.1215 256.64881 227.42706 255.64881 C 227.76039 254.62104 228.03657 253.66418 228.25879 252.77529 C 228.50879 251.85862 228.70437 251.12004 228.84325 250.56448 L 243.05017 247.06536 L 250.38403 262.56223 C 250.43959 262.64557 250.6236 262.59233 250.92916 262.39788 C 251.26249 262.20344 251.60771 261.96523 251.96882 261.68745 C 252.35771 261.3819 252.73168 261.08112 253.09279 260.77556 C 253.4539 260.44223 253.70696 260.18939 253.84584 260.02272 C 253.1514 259.18939 252.51282 258.18862 251.92949 257.02195 C 251.34615 255.85529 250.79974 254.64559 250.29974 253.39559 C 249.79974 252.14559 249.34517 250.89729 248.9285 249.64729 C 248.53961 248.39729 248.17721 247.26077 247.84387 246.23299 C 247.78832 246.06632 247.89767 245.98381 248.17544 245.98381 C 248.45322 245.95603 248.80406 245.95603 249.22073 245.98381 C 249.66518 246.01159 250.13693 246.03556 250.63693 246.06333 C 251.1647 246.06333 251.61927 246.02473 252.00816 245.9414 C 252.42483 245.83028 252.74693 245.63599 252.96915 245.35821 C 253.19137 245.08043 253.24886 244.64793 253.13775 244.06459 C 253.13775 243.62015 252.98248 243.31406 252.67692 243.1474 C 252.39914 242.95295 252.03674 242.82653 251.5923 242.77098 C 251.14785 242.71542 250.64736 242.71542 250.0918 242.77098 C 249.56403 242.79875 249.04041 242.81339 248.51263 242.81339 C 248.01263 242.78561 247.54088 242.71773 247.09644 242.60662 C 246.67977 242.49551 246.35767 242.27194 246.13545 241.93861 C 245.49656 241.0775 244.95576 240.14991 244.51132 239.14991 C 244.09465 238.14991 243.69195 237.13451 243.30306 236.10674 C 242.94195 235.07896 242.56798 234.04892 242.17909 233.02114 C 241.81798 231.99337 241.38653 231.02187 240.88653 230.10521 C 240.38653 229.16076 239.79982 228.30106 239.13315 227.52328 C 238.46648 226.71772 237.63795 226.02304 236.63795 225.43971 z M 265.43954 226.40992 C 265.26593 226.41687 265.0948 226.45181 264.92814 226.52126 C 264.5948 226.66015 264.2727 226.86908 263.96715 227.14686 C 263.68937 227.42464 263.49379 227.73072 263.38268 228.06405 L 263.38268 241.52508 L 255.59361 241.52508 L 255.67791 245.10373 L 263.75921 245.10373 C 264.00921 246.04817 264.13574 247.18999 264.13574 248.52332 C 264.13574 249.85666 264.107 251.24602 264.05144 252.69046 C 264.02366 254.10713 264.0121 255.49649 264.0121 256.8576 C 264.0121 258.21871 264.13301 259.36987 264.38301 260.31431 C 264.63301 261.25876 265.0529 261.92417 265.63623 262.31305 C 266.24734 262.72972 267.1218 262.69112 268.26069 262.19112 C 268.26069 260.49667 268.24913 258.92765 268.22135 257.4832 C 268.19357 256.03876 268.14765 254.62013 268.0921 253.23124 C 268.06432 251.84235 268.03558 250.42372 268.0078 248.97927 C 267.98002 247.50705 267.98002 245.91405 268.0078 244.19183 L 275.59456 244.3986 L 275.76315 240.6503 C 275.2076 240.70585 274.58058 240.74446 273.88613 240.77223 C 273.21947 240.77223 272.5234 240.78687 271.80118 240.81465 C 271.10673 240.81465 270.41067 240.82928 269.71622 240.85706 C 269.02178 240.85706 268.41194 240.89567 267.88416 240.979 C 267.80083 239.86789 267.74896 238.74601 267.72119 237.60712 C 267.72119 236.44045 267.70401 235.2893 267.67623 234.15041 C 267.64845 232.98374 267.57941 231.82728 267.46829 230.6884 C 267.35718 229.52173 267.16161 228.37057 266.88383 227.23168 C 266.63383 226.81502 266.32891 226.56218 265.9678 226.47884 C 265.78725 226.42329 265.61315 226.40298 265.43954 226.40992 z M 504.46745 230.02038 C 504.13412 230.04816 503.8292 230.18922 503.55142 230.43922 C 503.27364 230.66144 503.05495 231.0354 502.88828 231.56318 C 502.83273 233.61873 502.7465 235.70277 502.63539 237.81388 C 502.55206 239.89722 502.35648 241.91338 502.05093 243.85783 C 501.77315 245.80227 501.3417 247.61883 500.75837 249.31328 C 500.20281 251.00772 499.42614 252.4796 498.42614 253.7296 C 497.42614 254.95182 496.16616 255.91398 494.63838 256.60842 C 493.11061 257.27509 491.23516 257.56654 489.01294 257.4832 C 487.40183 257.31654 486.19371 256.81615 485.38816 255.98282 C 484.61038 255.12171 484.0927 254.0624 483.8427 252.8124 C 483.62048 251.5624 483.60892 250.17834 483.80337 248.65057 C 483.99781 247.12279 484.26243 245.57773 484.59576 244.02218 C 484.95687 242.43885 485.31366 240.92306 485.67477 239.47862 C 486.03588 238.0064 486.27175 236.72882 486.38286 235.64549 C 486.49397 234.53438 486.41337 233.67467 486.13559 233.06356 C 485.85781 232.45245 485.24797 232.20491 484.30353 232.31602 C 484.19242 232.31602 483.9681 232.33065 483.63477 232.35843 C 483.30144 232.35843 483.08274 232.36777 482.97163 232.39554 C 482.83274 234.06221 482.53938 235.91335 482.09494 237.94112 C 481.67827 239.94112 481.27557 241.98126 480.88668 244.06459 C 480.52557 246.12015 480.26095 248.13631 480.09428 250.10853 C 479.92762 252.08076 480.03696 253.86805 480.42585 255.47916 C 480.81474 257.06249 481.56829 258.39861 482.6794 259.48194 C 483.79051 260.5375 485.43008 261.18827 487.59675 261.43827 C 489.20786 261.54938 490.65185 261.48151 491.92963 261.23151 C 493.20741 260.98151 494.42709 260.57827 495.59375 260.02272 C 496.7882 259.43939 497.96757 258.7061 499.13424 257.81721 C 500.32869 256.90054 501.63459 255.8266 503.05126 254.60438 L 502.51175 261.27392 C 502.59509 261.41281 502.84252 261.54856 503.25919 261.68745 C 503.67586 261.79856 504.10731 261.87174 504.55175 261.89952 C 505.02397 261.9273 505.44386 261.88339 505.80497 261.77228 C 506.16608 261.63339 506.34447 261.37122 506.34447 260.98233 C 506.26114 258.34344 506.26114 255.75901 506.34447 253.23124 C 506.42781 250.70346 506.50841 248.20155 506.59175 245.72933 C 506.70286 243.22933 506.7719 240.75669 506.79968 238.31224 C 506.85523 235.84002 506.80337 233.37268 506.6367 230.90046 C 506.24782 230.62269 505.87385 230.39912 505.51274 230.23245 C 505.15163 230.06578 504.80079 229.9926 504.46745 230.02038 z M 236.17712 231.48365 C 236.7049 231.76143 237.18821 232.18863 237.63266 232.77196 C 238.0771 233.3553 238.48543 234.02071 238.84654 234.77071 C 239.23543 235.52071 239.56347 236.32717 239.84125 237.18828 C 240.1468 238.04939 240.41142 238.88513 240.63364 239.69069 C 240.88364 240.46846 241.0964 241.20175 241.26306 241.8962 C 241.42973 242.56286 241.55064 243.09252 241.63397 243.4814 C 240.82842 243.78696 239.9827 244.12232 239.09381 244.48343 C 238.20492 244.84454 237.29016 245.18923 236.34572 245.52256 C 235.40127 245.82812 234.42903 246.09029 233.42903 246.31251 C 232.42903 246.50696 231.42804 246.60411 230.42804 246.60411 C 230.87249 245.57633 231.38454 244.45445 231.96788 243.23222 C 232.55121 241.98223 233.12075 240.70465 233.6763 239.39909 C 234.25963 238.06576 234.77169 236.72964 235.21613 235.39631 C 235.68836 234.0352 236.01046 232.73365 236.17712 231.48365 z M 310.09465 237.89871 C 309.48354 237.89871 308.9543 238.02513 308.50986 238.27513 C 308.06541 238.49735 307.8411 238.92456 307.8411 239.56345 C 308.03554 241.23011 308.13333 243.07595 308.13333 245.10373 C 308.16111 247.10373 308.13799 249.10525 308.05465 251.10525 C 307.9991 253.07748 307.91287 254.93795 307.80176 256.68795 C 307.71843 258.41017 307.68969 259.84344 307.71746 260.98233 C 307.93969 261.34344 308.13526 261.57634 308.30193 261.68745 C 308.46859 261.79856 308.70447 261.85711 309.01002 261.85711 C 309.5378 261.85711 310.06704 261.75996 310.59481 261.56551 C 311.15037 261.34329 311.65086 261.14899 312.09531 260.98233 C 311.98419 259.53788 311.92671 258.08064 311.92671 256.60842 C 311.92671 255.1362 312.03606 253.71757 312.25828 252.35646 C 312.4805 250.99535 312.83135 249.71777 313.30357 248.52332 C 313.80357 247.32888 314.48245 246.29884 315.34356 245.43773 C 316.23245 244.54884 317.33122 243.85416 318.63678 243.35416 C 319.97011 242.82639 321.56376 242.56421 323.42487 242.56421 C 323.7582 243.84199 324.04 244.98381 324.26222 245.98381 C 324.51222 246.95603 324.70217 247.88362 324.84106 248.7725 C 324.97995 249.63362 325.06618 250.47869 325.09396 251.31202 C 325.14951 252.14535 325.14951 253.03433 325.09396 253.97878 C 325.0384 254.92322 324.92905 255.95326 324.76239 257.06437 C 324.59572 258.17548 324.38297 259.45306 324.13297 260.8975 C 324.04963 261.11972 324.2049 261.34329 324.59379 261.56551 C 325.01046 261.75996 325.49939 261.88638 326.05495 261.94194 C 326.6105 261.99749 327.13412 261.95358 327.63412 261.81469 C 328.16189 261.67581 328.49556 261.36972 328.63444 260.8975 C 328.63444 257.98083 328.85876 255.49356 329.3032 253.438 C 329.77542 251.35467 330.3737 249.60598 331.09593 248.18932 C 331.81815 246.74487 332.63512 245.60835 333.55179 244.77502 C 334.49623 243.91391 335.46848 243.25783 336.46848 242.81339 C 337.46848 242.34117 338.45228 242.02045 339.4245 241.85378 C 340.4245 241.65934 341.3277 241.53822 342.13326 241.48266 C 342.63326 242.98266 342.9438 244.58096 343.05491 246.2754 C 343.1938 247.94207 343.24566 249.63221 343.21788 251.35443 C 343.21788 253.07666 343.17758 254.78674 343.09425 256.48118 C 343.01091 258.14785 342.99935 259.74614 343.05491 261.27392 C 343.05491 261.5517 343.29078 261.73136 343.76301 261.81469 C 344.23523 261.87025 344.74728 261.88489 345.30284 261.85711 C 345.85839 261.82933 346.35889 261.77079 346.80333 261.68745 C 347.27555 261.57634 347.51143 261.49383 347.51143 261.43827 L 346.38746 242.06585 C 346.41524 240.81585 346.03566 239.8976 345.25788 239.31427 C 344.4801 238.73093 343.46755 238.41021 342.21756 238.35466 C 340.99533 238.27132 339.63756 238.41238 338.13756 238.77349 C 336.63756 239.10683 335.17639 239.59257 333.75972 240.23146 C 332.37083 240.84257 331.12241 241.56652 330.0113 242.39986 C 328.90019 243.20541 328.12352 244.02121 327.67907 244.85455 C 327.67907 243.54899 327.34541 242.52426 326.67875 241.77426 C 326.01208 240.99648 325.14918 240.43755 324.09363 240.10422 C 323.03807 239.77089 321.87026 239.64977 320.59248 239.7331 C 319.34248 239.78866 318.1228 240.00692 316.92835 240.39581 C 315.73391 240.75692 314.6467 241.27194 313.67448 241.93861 C 312.70225 242.60528 311.99463 243.3585 311.55018 244.19183 C 311.46685 243.88628 311.38624 243.3859 311.30291 242.69145 C 311.21958 241.99701 311.12179 241.30233 311.01068 240.60788 C 310.92735 239.88566 310.80082 239.25886 310.63415 238.73108 C 310.49526 238.17552 310.31687 237.89871 310.09465 237.89871 z M 367.50114 238.01005 C 366.7303 237.97532 365.94075 237.99362 365.13519 238.06306 C 363.55186 238.17418 361.99852 238.44165 360.47074 238.85832 C 358.94296 239.24721 357.48179 239.77156 356.0929 240.43823 C 354.70401 241.07712 353.48433 241.80107 352.42877 242.60662 C 351.37322 243.41218 350.52188 244.27189 349.88299 245.18855 C 349.27188 246.07744 348.96696 246.98106 348.96696 247.89772 C 348.96696 248.48106 349.10505 249.09322 349.38283 249.73211 C 349.68838 250.34322 350.11983 250.91148 350.67539 251.43926 C 351.23094 251.96704 351.89827 252.41418 352.67604 252.77529 C 353.4816 253.1364 354.3848 253.3307 355.3848 253.35848 C 358.74591 252.52514 361.34616 252.04873 363.17949 251.93762 C 365.01283 251.79873 366.23251 251.91052 366.84362 252.27163 C 367.48251 252.63274 367.59185 253.17703 367.17519 253.89925 C 366.7863 254.5937 366.00963 255.35625 364.84296 256.18959 C 363.70407 257.02292 362.27164 257.86799 360.54942 258.7291 C 358.85497 259.59021 357.02545 260.34344 355.05323 260.98233 C 355.13656 261.06566 355.24591 261.23069 355.3848 261.48069 C 355.52369 261.73069 355.67896 261.99286 355.84562 262.27064 C 356.04007 262.54842 356.21846 262.78662 356.38513 262.98107 C 356.55179 263.20329 356.70706 263.31508 356.84595 263.31508 C 359.51262 262.45397 361.94042 261.40929 364.13486 260.18707 C 366.32931 258.93707 368.13571 257.6595 369.55237 256.35394 C 370.99682 255.04838 371.96906 253.81472 372.46906 252.64805 C 372.96906 251.45361 372.85971 250.48211 372.13749 249.73211 C 371.41527 248.98211 370.01158 248.53497 367.92824 248.39608 C 365.84491 248.25719 362.92818 248.59255 359.17818 249.39811 C 358.76151 249.39811 358.20354 249.46598 357.50909 249.60487 C 356.84243 249.71598 356.19228 249.78916 355.55339 249.81694 C 354.94228 249.81694 354.40149 249.72912 353.92927 249.56246 C 353.48482 249.36801 353.26051 248.97942 353.26051 248.39608 C 353.28828 247.34053 353.61039 246.39831 354.2215 245.56497 C 354.83261 244.73164 355.60928 244.03696 356.55372 243.4814 C 357.52594 242.89807 358.63628 242.45093 359.88628 242.14538 C 361.13628 241.81204 362.425 241.61774 363.75834 241.56219 C 365.09167 241.50663 366.41475 241.59445 367.72031 241.81667 C 369.05364 242.03889 370.2905 242.41285 371.42939 242.94063 C 371.42939 241.30174 371.36035 240.12132 371.22146 239.39909 C 371.08257 238.64909 370.59364 238.27513 369.76031 238.27513 C 369.02419 238.13624 368.27197 238.04477 367.50114 238.01005 z M 528.58211 238.01005 C 527.81128 237.97532 527.02734 237.99362 526.22179 238.06306 C 524.63845 238.17418 523.07949 238.44165 521.55171 238.85832 C 520.02394 239.24721 518.56838 239.77156 517.17949 240.43823 C 515.7906 241.07712 514.5653 241.80107 513.50975 242.60662 C 512.45419 243.41218 511.60848 244.27189 510.96959 245.18855 C 510.35848 246.07744 510.05356 246.98106 510.05356 247.89772 C 510.05356 248.48106 510.19165 249.09322 510.46942 249.73211 C 510.77498 250.34322 511.20643 250.91148 511.76198 251.43926 C 512.31754 251.96704 512.98486 252.41418 513.76264 252.77529 C 514.56819 253.1364 515.47139 253.3307 516.47139 253.35848 C 519.8325 252.52514 522.42714 252.04873 524.26047 251.93762 C 526.0938 251.79873 527.31348 251.91052 527.92459 252.27163 C 528.56348 252.63274 528.67845 253.17703 528.26178 253.89925 C 527.87289 254.5937 527.09622 255.35625 525.92956 256.18959 C 524.79067 257.02292 523.35823 257.86799 521.63601 258.7291 C 519.94157 259.59021 518.10643 260.34344 516.1342 260.98233 C 516.21754 261.06566 516.33251 261.23069 516.47139 261.48069 C 516.61028 261.73069 516.75993 261.99286 516.9266 262.27064 C 517.12104 262.54842 517.30506 262.78662 517.47172 262.98107 C 517.63839 263.20329 517.78804 263.31508 517.92693 263.31508 C 520.59359 262.45397 523.02701 261.40929 525.22146 260.18707 C 527.4159 258.93707 529.21668 257.6595 530.63335 256.35394 C 532.07779 255.04838 533.05003 253.81472 533.55003 252.64805 C 534.05003 251.45361 533.94069 250.48211 533.21847 249.73211 C 532.49624 248.98211 531.09255 248.53497 529.00922 248.39608 C 526.92589 248.25719 524.00915 248.59255 520.25915 249.39811 C 519.84249 249.39811 519.29013 249.46598 518.59569 249.60487 C 517.92902 249.71598 517.27326 249.78916 516.63437 249.81694 C 516.02326 249.81694 515.48246 249.72912 515.01024 249.56246 C 514.5658 249.36801 514.34148 248.97942 514.34148 248.39608 C 514.36926 247.34053 514.69136 246.39831 515.30247 245.56497 C 515.91358 244.73164 516.69025 244.03696 517.6347 243.4814 C 518.60692 242.89807 519.71725 242.45093 520.96725 242.14538 C 522.21725 241.81204 523.5116 241.61774 524.84493 241.56219 C 526.17826 241.50663 527.49573 241.59445 528.80128 241.81667 C 530.13462 242.03889 531.37148 242.41285 532.51037 242.94063 C 532.51037 241.30174 532.44132 240.12132 532.30243 239.39909 C 532.16355 238.64909 531.67461 238.27513 530.84128 238.27513 C 530.10517 238.13624 529.35294 238.04477 528.58211 238.01005 z M 294.51088 238.43949 C 292.87199 238.60615 291.15182 238.98011 289.34626 239.56345 C 287.54071 240.119 285.8724 240.9401 284.34462 242.02344 C 282.81684 243.10677 281.55124 244.46686 280.55124 246.10575 C 279.55124 247.71686 279.05075 249.65984 279.05075 251.93762 C 279.05075 255.49318 279.90208 258.03899 281.59653 259.56677 C 283.29097 261.09455 285.77626 261.85711 289.05403 261.85711 C 291.2207 261.85711 293.2861 261.5803 295.25832 261.02474 C 297.25832 260.44141 299.01285 259.5764 300.51285 258.43751 C 302.01285 257.27084 303.20379 255.84288 304.09268 254.14843 C 305.00935 252.42621 305.46954 250.42468 305.46954 248.1469 C 305.60842 246.78579 305.40129 245.49358 304.84573 244.27136 C 304.31796 243.04914 303.55285 241.99513 302.55285 241.10624 C 301.55285 240.21735 300.35629 239.53731 298.9674 239.06509 C 297.57851 238.56509 296.09421 238.35615 294.51088 238.43949 z M 414.13442 238.43949 C 412.49554 238.60615 410.77536 238.98011 408.96981 239.56345 C 407.16425 240.119 405.49594 240.9401 403.96817 242.02344 C 402.44039 243.10677 401.17479 244.46686 400.17479 246.10575 C 399.17479 247.71686 398.67991 249.65984 398.67991 251.93762 C 398.67991 255.49318 399.52563 258.03899 401.22007 259.56677 C 402.91452 261.09455 405.3998 261.85711 408.67758 261.85711 C 410.84424 261.85711 412.91526 261.5803 414.88748 261.02474 C 416.88748 260.44141 418.6364 259.5764 420.1364 258.43751 C 421.63639 257.27084 422.82733 255.84288 423.71622 254.14843 C 424.63289 252.42621 425.09308 250.42468 425.09308 248.1469 C 425.23197 246.78579 425.02483 245.49358 424.46928 244.27136 C 423.9415 243.04914 423.17639 241.99513 422.17639 241.10624 C 421.17639 240.21735 419.98545 239.53731 418.59656 239.06509 C 417.20768 238.56509 415.71776 238.35615 414.13442 238.43949 z M 295.75848 241.31301 C 296.78626 241.31301 297.70664 241.50731 298.51219 241.8962 C 299.31775 242.28508 299.99663 242.81474 300.55219 243.4814 C 301.10775 244.12029 301.52201 244.88285 301.79979 245.77174 C 302.07757 246.63285 302.22128 247.5511 302.22128 248.52332 C 302.22128 250.41221 301.85887 251.99587 301.13665 253.27365 C 300.41443 254.52365 299.45375 255.53905 298.2593 256.31683 C 297.06486 257.06683 295.68991 257.60582 294.13435 257.93915 C 292.5788 258.2447 290.96797 258.4004 289.30131 258.4004 C 288.21797 258.4004 287.26291 258.34185 286.42958 258.23074 C 285.62402 258.11963 284.92796 257.89606 284.34462 257.56273 C 283.78907 257.20162 283.35762 256.67727 283.05206 255.98282 C 282.77429 255.28838 282.6362 254.35549 282.6362 253.18882 C 283.08064 250.57771 283.75953 248.53758 284.67619 247.06536 C 285.59286 245.56536 286.65133 244.43817 287.84577 243.68817 C 289.04022 242.91039 290.31738 242.38604 291.67849 242.10826 C 293.0396 241.80271 294.39737 241.53523 295.75848 241.31301 z M 415.38765 241.31301 C 416.41542 241.31301 417.33018 241.50731 418.13574 241.8962 C 418.94129 242.28508 419.62018 242.81474 420.17573 243.4814 C 420.73129 244.12029 421.15118 244.88285 421.42895 245.77174 C 421.70673 246.63285 421.84482 247.5511 421.84482 248.52332 C 421.84482 250.41221 421.48242 251.99587 420.7602 253.27365 C 420.03797 254.52365 419.07729 255.53905 417.88285 256.31683 C 416.6884 257.06683 415.31345 257.60582 413.7579 257.93915 C 412.20234 258.2447 410.59152 258.4004 408.92485 258.4004 C 407.84152 258.4004 406.88645 258.34185 406.05312 258.23074 C 405.24756 258.11963 404.5515 257.89606 403.96817 257.56273 C 403.41261 257.20162 402.98116 256.67727 402.67561 255.98282 C 402.39783 255.28838 402.25974 254.35549 402.25974 253.18882 C 402.70418 250.57771 403.38307 248.53758 404.29974 247.06536 C 405.2164 245.56536 406.27487 244.43817 407.46932 243.68817 C 408.66376 242.91039 409.94092 242.38604 411.30203 242.10826 C 412.66314 241.80271 414.02653 241.53523 415.38765 241.31301 z "
       transform="matrix(0.09195385,0,0,0.09747138,-6.8781469,-14.034858)" />
    <path
       id="path103373"
       style="fill:none;stroke:#38817a;stroke-width:0.352466;stroke-dasharray:none;stroke-opacity:1"
       d="m 6.0631642,12.582061 a 1.9579054,5.115433 0 0 1 -0.4825724,-3.3629739 1.9579054,5.115433 0 0 1 1.957906,-5.115434 1.9579054,5.115433 0 0 1 1.9579063,5.115434 v 0 A 1.9579054,5.115433 0 0 1 7.5384978,14.33452 1.9579054,5.115433 0 0 1 6.8241459,13.981884" />
    <path
       id="ellipse6001"
       style="fill:none;stroke:#56bfb5;stroke-width:0.352482;stroke-dasharray:none;stroke-opacity:1"
       d="M 3.8213857,8.7090649 A 4.8944354,2.0463104 30.490408 0 0 6.6049962,11.04339 v 0 A 4.8944354,2.0463104 30.490408 0 0 11.780524,11.658056 4.8944354,2.0463104 30.490408 0 0 8.4719994,7.3947836 4.8944354,2.0463104 30.490408 0 0 3.296472,6.7801152 4.8944354,2.0463104 30.490408 0 0 3.2085299,7.4174547" />
    <path
       id="path23079"
       style="fill:none;stroke:#125751;stroke-width:0.352466;stroke-dasharray:none;stroke-opacity:1"
       d="M 11.256215,8.7090649 A 2.0463104,4.8944354 59.509592 0 1 8.4726041,11.04339 v 0 a 2.0463104,4.8944354 59.509592 0 1 -5.1755309,0.614668 2.0463104,4.8944354 59.509592 0 1 3.3085243,-4.2632744 2.0463104,4.8944354 59.509592 0 1 5.1755275,-0.6146684 2.0463104,4.8944354 59.509592 0 1 0.08794,0.6373395" />
    <path
       id="rect63326"
       style="fill:#fbd66f;fill-opacity:1;stroke:none;stroke-width:0.145553;stroke-opacity:1"
       d="m 7.9077335,8.7162563 c -0.1040159,0 -0.2080248,0.042245 -0.2877266,0.1267276 l -0.084352,0.089439 -0.078691,-0.083408 c -0.1594036,-0.1689723 -0.4160531,-0.1689723 -0.5754567,0 -0.1594037,0.1689684 -0.1594037,0.4410435 0,0.6100112 l 0.078663,0.083385 c 0.574852,0.6093439 0.5754845,0.6100139 0.5754845,0.6100139 0,0 0.00278,-0.0029 0.5754846,-0.6100139 l 0.084352,-0.089411 c 0.1594002,-0.1689676 0.1594002,-0.4410466 0,-0.610015 C 8.1157863,8.7585 8.0117493,8.7162552 7.9077335,8.7162563 Z"
       sodipodi:nodetypes="sccssscccsss" />
    <ellipse
       style="fill:#f5f093;fill-opacity:1;stroke:#fbd66f;stroke-width:0;stroke-dasharray:none"
       id="ellipse42105"
       cx="6.3279414"
       cy="13.352277"
       rx="0.85312504"
       ry="0.86499739" />
    <ellipse
       style="fill:#f5f093;fill-opacity:1;stroke:#fbd66f;stroke-width:0;stroke-dasharray:none"
       id="ellipse42107"
       cx="11.495255"
       cy="8.0541687"
       rx="0.85312504"
       ry="0.86499739" />
    <ellipse
       style="fill:#f5f093;fill-opacity:1;stroke:#fbd66f;stroke-width:0;stroke-dasharray:none"
       id="ellipse42109"
       cx="3.3778806"
       cy="8.0740833"
       rx="0.85312504"
       ry="0.86499739" />
    <text
       xml:space="preserve"
       transform="matrix(0.03423607,0,0,0.03629034,-0.67655281,-9.2225578)"
       id="text42111"
       style="font-style:normal;font-variant:normal;font-weight:bold;font-stretch:normal;font-size:21.3333px;font-family:Arial;-inkscape-font-specification:'Arial, Bold';font-variant-ligatures:normal;font-variant-caps:normal;font-variant-numeric:normal;font-variant-east-asian:normal;white-space:pre;shape-inside:url(#rect42113);fill:#125751;fill-opacity:1;stroke:none;stroke-width:0;stroke-dasharray:none;stroke-opacity:1"><tspan
         x="105.92578"
         y="488.07139"
         id="tspan1258"><tspan
           style="font-weight:900;font-size:32px;-inkscape-font-specification:'Arial, Heavy'"
           id="tspan1256">A</tspan></tspan></text>
    <text
       xml:space="preserve"
       transform="matrix(0.03423607,0,0,0.03629034,9.4608168,-10.303003)"
       id="text42117"
       style="font-style:normal;font-variant:normal;font-weight:bold;font-stretch:normal;font-size:32px;font-family:Arial;-inkscape-font-specification:'Arial, Bold';font-variant-ligatures:normal;font-variant-caps:normal;font-variant-numeric:normal;font-variant-east-asian:normal;white-space:pre;shape-inside:url(#rect42119);fill:#125751;fill-opacity:1;stroke:none;stroke-width:0;stroke-dasharray:none;stroke-opacity:1"><tspan
         x="46.103516"
         y="517.29484"
         id="tspan1262"><tspan
           style="font-weight:900;-inkscape-font-specification:'Arial, Heavy'"
           id="tspan1260">O</tspan></tspan></text>
    <text
       xml:space="preserve"
       transform="matrix(0.03423607,0,0,0.03629034,2.695842,-7.6613216)"
       id="text42123"
       style="font-style:normal;font-variant:normal;font-weight:bold;font-stretch:normal;font-size:32px;font-family:Arial;-inkscape-font-specification:'Arial, Bold';font-variant-ligatures:normal;font-variant-caps:normal;font-variant-numeric:normal;font-variant-east-asian:normal;white-space:pre;shape-inside:url(#rect42125);fill:#125751;fill-opacity:1;stroke:none;stroke-width:0;stroke-dasharray:none;stroke-opacity:1"><tspan
         x="92.753906"
         y="590.29094"
         id="tspan1266"><tspan
           style="font-weight:900;-inkscape-font-specification:'Arial, Heavy'"
           id="tspan1264">U</tspan></tspan></text>
  </g>
</svg>
